<mxfile host="app.diagrams.net" modified="2023-12-13T09:36:52.839Z" agent="Mozilla/5.0 (Windows NT 10.0; Win64; x64) AppleWebKit/537.36 (KHTML, like Gecko) Chrome/120.0.0.0 Safari/537.36 Edg/120.0.0.0" etag="S5LNjUXIneOSF6qheV46" version="22.1.8" type="google">
  <diagram id="C5RBs43oDa-KdzZeNtuy" name="Page-1">
    <mxGraphModel grid="1" page="1" gridSize="10" guides="1" tooltips="1" connect="1" arrows="1" fold="1" pageScale="1" pageWidth="827" pageHeight="1169" math="0" shadow="0">
      <root>
        <mxCell id="WIyWlLk6GJQsqaUBKTNV-0" />
        <mxCell id="WIyWlLk6GJQsqaUBKTNV-1" parent="WIyWlLk6GJQsqaUBKTNV-0" />
        <mxCell id="pUIKYV5cTmb6bCNj5t-Q-20" value="FOOD_PROVIDER" style="swimlane;fontStyle=2;align=center;verticalAlign=top;childLayout=stackLayout;horizontal=1;startSize=26;horizontalStack=0;resizeParent=1;resizeLast=0;collapsible=1;marginBottom=0;rounded=0;shadow=0;strokeWidth=1;fillColor=#ffcd28;strokeColor=#d79b00;gradientColor=#FFB570;" vertex="1" parent="WIyWlLk6GJQsqaUBKTNV-1">
          <mxGeometry x="250" y="30" width="240" height="262" as="geometry">
            <mxRectangle x="230" y="140" width="160" height="26" as="alternateBounds" />
          </mxGeometry>
        </mxCell>
        <mxCell id="pUIKYV5cTmb6bCNj5t-Q-21" value="PK : ID_FOOD_PROVIDER" style="text;align=left;verticalAlign=top;spacingLeft=4;spacingRight=4;overflow=hidden;rotatable=0;points=[[0,0.5],[1,0.5]];portConstraint=eastwest;fillColor=#ffe6cc;strokeColor=#d79b00;" vertex="1" parent="pUIKYV5cTmb6bCNj5t-Q-20">
          <mxGeometry y="26" width="240" height="26" as="geometry" />
        </mxCell>
        <mxCell id="C3KwuTIJUDm_DYnTq-bH-4" value="FK : ID_CATEGORIA_FOOD_PROVIDER" style="text;align=left;verticalAlign=top;spacingLeft=4;spacingRight=4;overflow=hidden;rotatable=0;points=[[0,0.5],[1,0.5]];portConstraint=eastwest;fillColor=#fff2cc;strokeColor=#d6b656;" vertex="1" parent="pUIKYV5cTmb6bCNj5t-Q-20">
          <mxGeometry y="52" width="240" height="26" as="geometry" />
        </mxCell>
        <mxCell id="C3KwuTIJUDm_DYnTq-bH-25" value="FK : ID_PROFILO : RISTORATORE" style="text;align=left;verticalAlign=top;spacingLeft=4;spacingRight=4;overflow=hidden;rotatable=0;points=[[0,0.5],[1,0.5]];portConstraint=eastwest;fillColor=#FFCE9F;strokeColor=#6c8ebf;" vertex="1" parent="pUIKYV5cTmb6bCNj5t-Q-20">
          <mxGeometry y="78" width="240" height="26" as="geometry" />
        </mxCell>
        <mxCell id="pUIKYV5cTmb6bCNj5t-Q-22" value="" style="line;html=1;strokeWidth=1;align=left;verticalAlign=middle;spacingTop=-1;spacingLeft=3;spacingRight=3;rotatable=0;labelPosition=right;points=[];portConstraint=eastwest;" vertex="1" parent="pUIKYV5cTmb6bCNj5t-Q-20">
          <mxGeometry y="104" width="240" height="8" as="geometry" />
        </mxCell>
        <mxCell id="pUIKYV5cTmb6bCNj5t-Q-23" value="PIVA" style="text;html=1;align=center;verticalAlign=middle;resizable=0;points=[];autosize=1;strokeColor=none;fillColor=none;" vertex="1" parent="pUIKYV5cTmb6bCNj5t-Q-20">
          <mxGeometry y="112" width="240" height="30" as="geometry" />
        </mxCell>
        <mxCell id="pUIKYV5cTmb6bCNj5t-Q-24" value="Nome Ristorante" style="text;html=1;align=center;verticalAlign=middle;resizable=0;points=[];autosize=1;strokeColor=none;fillColor=none;" vertex="1" parent="pUIKYV5cTmb6bCNj5t-Q-20">
          <mxGeometry y="142" width="240" height="30" as="geometry" />
        </mxCell>
        <mxCell id="oPEYbx64hj9ZwjbUVSfU-4" value="Prezzo_consegna" style="text;html=1;align=center;verticalAlign=middle;resizable=0;points=[];autosize=1;strokeColor=none;fillColor=none;" vertex="1" parent="pUIKYV5cTmb6bCNj5t-Q-20">
          <mxGeometry y="172" width="240" height="30" as="geometry" />
        </mxCell>
        <mxCell id="oPEYbx64hj9ZwjbUVSfU-5" value="Ordine_minimo" style="text;html=1;align=center;verticalAlign=middle;resizable=0;points=[];autosize=1;strokeColor=none;fillColor=none;" vertex="1" parent="pUIKYV5cTmb6bCNj5t-Q-20">
          <mxGeometry y="202" width="240" height="30" as="geometry" />
        </mxCell>
        <mxCell id="7HxDWiLNe3AIB8kSRY5j-55" value="Orario Food Provider" style="text;html=1;align=center;verticalAlign=middle;resizable=0;points=[];autosize=1;strokeColor=none;fillColor=none;" vertex="1" parent="pUIKYV5cTmb6bCNj5t-Q-20">
          <mxGeometry y="232" width="240" height="30" as="geometry" />
        </mxCell>
        <mxCell id="pUIKYV5cTmb6bCNj5t-Q-32" value="Ordini" style="swimlane;fontStyle=2;align=center;verticalAlign=top;childLayout=stackLayout;horizontal=1;startSize=26;horizontalStack=0;resizeParent=1;resizeLast=0;collapsible=1;marginBottom=0;rounded=0;shadow=0;strokeWidth=1;fillColor=#d0cee2;strokeColor=#56517e;" vertex="1" parent="WIyWlLk6GJQsqaUBKTNV-1">
          <mxGeometry y="930" width="342" height="390" as="geometry">
            <mxRectangle x="230" y="140" width="160" height="26" as="alternateBounds" />
          </mxGeometry>
        </mxCell>
        <mxCell id="C3KwuTIJUDm_DYnTq-bH-6" value="PK: ID_ORDINE" style="text;html=1;align=center;verticalAlign=middle;resizable=0;points=[];autosize=1;strokeColor=#9673a6;fillColor=#e1d5e7;" vertex="1" parent="pUIKYV5cTmb6bCNj5t-Q-32">
          <mxGeometry y="26" width="342" height="30" as="geometry" />
        </mxCell>
        <mxCell id="pUIKYV5cTmb6bCNj5t-Q-35" value="FK: ID_PROFILO : CLIENTE" style="text;html=1;align=center;verticalAlign=middle;resizable=0;points=[];autosize=1;strokeColor=#6c8ebf;fillColor=#dae8fc;" vertex="1" parent="pUIKYV5cTmb6bCNj5t-Q-32">
          <mxGeometry y="56" width="342" height="30" as="geometry" />
        </mxCell>
        <mxCell id="pUIKYV5cTmb6bCNj5t-Q-36" value="FK : ID_FOOD_PROVIDER" style="text;html=1;align=center;verticalAlign=middle;resizable=0;points=[];autosize=1;strokeColor=#d79b00;fillColor=#ffe6cc;" vertex="1" parent="pUIKYV5cTmb6bCNj5t-Q-32">
          <mxGeometry y="86" width="342" height="30" as="geometry" />
        </mxCell>
        <mxCell id="pUIKYV5cTmb6bCNj5t-Q-37" value="FK : ID_PROFILO : FATTORINO" style="text;html=1;align=center;verticalAlign=middle;resizable=0;points=[];autosize=1;strokeColor=#10739e;fillColor=#7EA6E0;" vertex="1" parent="pUIKYV5cTmb6bCNj5t-Q-32">
          <mxGeometry y="116" width="342" height="30" as="geometry" />
        </mxCell>
        <mxCell id="pUIKYV5cTmb6bCNj5t-Q-34" value="" style="line;html=1;strokeWidth=1;align=left;verticalAlign=middle;spacingTop=-1;spacingLeft=3;spacingRight=3;rotatable=0;labelPosition=right;points=[];portConstraint=eastwest;" vertex="1" parent="pUIKYV5cTmb6bCNj5t-Q-32">
          <mxGeometry y="146" width="342" height="8" as="geometry" />
        </mxCell>
        <mxCell id="pUIKYV5cTmb6bCNj5t-Q-38" value="ORARIO ORDINE EFFETTUATO" style="text;html=1;align=center;verticalAlign=middle;resizable=0;points=[];autosize=1;strokeColor=none;fillColor=none;" vertex="1" parent="pUIKYV5cTmb6bCNj5t-Q-32">
          <mxGeometry y="154" width="342" height="30" as="geometry" />
        </mxCell>
        <mxCell id="pUIKYV5cTmb6bCNj5t-Q-42" value="ORARIO ARRIVO PREVISTO" style="text;html=1;align=center;verticalAlign=middle;resizable=0;points=[];autosize=1;strokeColor=none;fillColor=none;" vertex="1" parent="pUIKYV5cTmb6bCNj5t-Q-32">
          <mxGeometry y="184" width="342" height="30" as="geometry" />
        </mxCell>
        <mxCell id="pUIKYV5cTmb6bCNj5t-Q-43" value="ORARIO ARRIVO EFFETTIVO" style="text;html=1;align=center;verticalAlign=middle;resizable=0;points=[];autosize=1;strokeColor=none;fillColor=none;" vertex="1" parent="pUIKYV5cTmb6bCNj5t-Q-32">
          <mxGeometry y="214" width="342" height="30" as="geometry" />
        </mxCell>
        <mxCell id="pUIKYV5cTmb6bCNj5t-Q-39" value="Stato" style="text;html=1;align=center;verticalAlign=middle;resizable=0;points=[];autosize=1;strokeColor=none;fillColor=none;" vertex="1" parent="pUIKYV5cTmb6bCNj5t-Q-32">
          <mxGeometry y="244" width="342" height="30" as="geometry" />
        </mxCell>
        <mxCell id="pUIKYV5cTmb6bCNj5t-Q-40" value="Note" style="text;html=1;align=center;verticalAlign=middle;resizable=0;points=[];autosize=1;strokeColor=none;fillColor=none;" vertex="1" parent="pUIKYV5cTmb6bCNj5t-Q-32">
          <mxGeometry y="274" width="342" height="30" as="geometry" />
        </mxCell>
        <mxCell id="pUIKYV5cTmb6bCNj5t-Q-44" value="Tipo Pagamento" style="text;html=1;align=center;verticalAlign=middle;resizable=0;points=[];autosize=1;strokeColor=none;fillColor=none;" vertex="1" parent="pUIKYV5cTmb6bCNj5t-Q-32">
          <mxGeometry y="304" width="342" height="30" as="geometry" />
        </mxCell>
        <mxCell id="oPEYbx64hj9ZwjbUVSfU-0" value="Indirizzo Alternativo" style="text;html=1;align=center;verticalAlign=middle;resizable=0;points=[];autosize=1;strokeColor=none;fillColor=none;" vertex="1" parent="pUIKYV5cTmb6bCNj5t-Q-32">
          <mxGeometry y="334" width="342" height="30" as="geometry" />
        </mxCell>
        <mxCell id="Pgp0EbT_cRB48tDjf4iF-46" value="ORDINI-PRODOTTI" style="swimlane;fontStyle=0;align=center;verticalAlign=top;childLayout=stackLayout;horizontal=1;startSize=26;horizontalStack=0;resizeParent=1;resizeLast=0;collapsible=1;marginBottom=0;rounded=0;shadow=0;strokeWidth=1;fillColor=#dae8fc;strokeColor=#6c8ebf;gradientColor=#7ea6e0;" vertex="1" parent="WIyWlLk6GJQsqaUBKTNV-1">
          <mxGeometry x="425" y="920" width="280" height="150" as="geometry">
            <mxRectangle x="130" y="380" width="160" height="26" as="alternateBounds" />
          </mxGeometry>
        </mxCell>
        <mxCell id="C3KwuTIJUDm_DYnTq-bH-27" value="PK : ID_ORDINE_PRODOTTO" style="text;align=left;verticalAlign=top;spacingLeft=4;spacingRight=4;overflow=hidden;rotatable=0;points=[[0,0.5],[1,0.5]];portConstraint=eastwest;fillColor=#dae8fc;strokeColor=#6c8ebf;" vertex="1" parent="Pgp0EbT_cRB48tDjf4iF-46">
          <mxGeometry y="26" width="280" height="26" as="geometry" />
        </mxCell>
        <mxCell id="WrUZInJRl3D3PERXDvme-10" value="PK : ID_PRODOTTO" style="text;align=left;verticalAlign=top;spacingLeft=4;spacingRight=4;overflow=hidden;rotatable=0;points=[[0,0.5],[1,0.5]];portConstraint=eastwest;fillColor=#f5f5f5;fontColor=#333333;strokeColor=#666666;" vertex="1" parent="Pgp0EbT_cRB48tDjf4iF-46">
          <mxGeometry y="52" width="280" height="26" as="geometry" />
        </mxCell>
        <mxCell id="Pgp0EbT_cRB48tDjf4iF-48" value="FK: ID_ORDINE" style="text;align=left;verticalAlign=top;spacingLeft=4;spacingRight=4;overflow=hidden;rotatable=0;points=[[0,0.5],[1,0.5]];portConstraint=eastwest;rounded=0;shadow=0;html=0;fillColor=#e1d5e7;strokeColor=#9673a6;" vertex="1" parent="Pgp0EbT_cRB48tDjf4iF-46">
          <mxGeometry y="78" width="280" height="26" as="geometry" />
        </mxCell>
        <mxCell id="Pgp0EbT_cRB48tDjf4iF-49" value="" style="line;html=1;strokeWidth=1;align=left;verticalAlign=middle;spacingTop=-1;spacingLeft=3;spacingRight=3;rotatable=0;labelPosition=right;points=[];portConstraint=eastwest;" vertex="1" parent="Pgp0EbT_cRB48tDjf4iF-46">
          <mxGeometry y="104" width="280" height="8" as="geometry" />
        </mxCell>
        <mxCell id="6HLg9NW1RjELcp-UifMe-1" value="Quantità" style="text;html=1;align=center;verticalAlign=middle;resizable=0;points=[];autosize=1;strokeColor=none;fillColor=none;" vertex="1" parent="Pgp0EbT_cRB48tDjf4iF-46">
          <mxGeometry y="112" width="280" height="30" as="geometry" />
        </mxCell>
        <mxCell id="Pgp0EbT_cRB48tDjf4iF-54" value="Recensioni" style="swimlane;fontStyle=2;align=center;verticalAlign=top;childLayout=stackLayout;horizontal=1;startSize=26;horizontalStack=0;resizeParent=1;resizeLast=0;collapsible=1;marginBottom=0;rounded=0;shadow=0;strokeWidth=1;fillColor=#d5e8d4;strokeColor=#82b366;gradientColor=#97d077;" vertex="1" parent="WIyWlLk6GJQsqaUBKTNV-1">
          <mxGeometry y="680" width="185" height="210" as="geometry">
            <mxRectangle x="230" y="140" width="160" height="26" as="alternateBounds" />
          </mxGeometry>
        </mxCell>
        <mxCell id="Pgp0EbT_cRB48tDjf4iF-55" value="PK : ID_RECENSIONE" style="text;align=left;verticalAlign=top;spacingLeft=4;spacingRight=4;overflow=hidden;rotatable=0;points=[[0,0.5],[1,0.5]];portConstraint=eastwest;fillColor=#d5e8d4;strokeColor=#82b366;" vertex="1" parent="Pgp0EbT_cRB48tDjf4iF-54">
          <mxGeometry y="26" width="185" height="26" as="geometry" />
        </mxCell>
        <mxCell id="C3KwuTIJUDm_DYnTq-bH-18" value="FK : ID_ORDINE" style="text;align=left;verticalAlign=top;spacingLeft=4;spacingRight=4;overflow=hidden;rotatable=0;points=[[0,0.5],[1,0.5]];portConstraint=eastwest;fillColor=#e1d5e7;strokeColor=#9673a6;" vertex="1" parent="Pgp0EbT_cRB48tDjf4iF-54">
          <mxGeometry y="52" width="185" height="26" as="geometry" />
        </mxCell>
        <mxCell id="Pgp0EbT_cRB48tDjf4iF-59" value="" style="line;html=1;strokeWidth=1;align=left;verticalAlign=middle;spacingTop=-1;spacingLeft=3;spacingRight=3;rotatable=0;labelPosition=right;points=[];portConstraint=eastwest;" vertex="1" parent="Pgp0EbT_cRB48tDjf4iF-54">
          <mxGeometry y="78" width="185" height="8" as="geometry" />
        </mxCell>
        <mxCell id="Pgp0EbT_cRB48tDjf4iF-60" value="Titolo" style="text;html=1;align=center;verticalAlign=middle;resizable=0;points=[];autosize=1;strokeColor=none;fillColor=none;" vertex="1" parent="Pgp0EbT_cRB48tDjf4iF-54">
          <mxGeometry y="86" width="185" height="30" as="geometry" />
        </mxCell>
        <mxCell id="5fsvdAUHNscXeRY_oX4H-6" value="Data&amp;nbsp;" style="text;html=1;align=center;verticalAlign=middle;resizable=0;points=[];autosize=1;strokeColor=none;fillColor=none;" vertex="1" parent="Pgp0EbT_cRB48tDjf4iF-54">
          <mxGeometry y="116" width="185" height="30" as="geometry" />
        </mxCell>
        <mxCell id="Pgp0EbT_cRB48tDjf4iF-62" value="Numero Stelle (1:5)" style="text;html=1;align=center;verticalAlign=middle;resizable=0;points=[];autosize=1;strokeColor=none;fillColor=none;" vertex="1" parent="Pgp0EbT_cRB48tDjf4iF-54">
          <mxGeometry y="146" width="185" height="30" as="geometry" />
        </mxCell>
        <mxCell id="Pgp0EbT_cRB48tDjf4iF-61" value="Descrizione" style="text;html=1;align=center;verticalAlign=middle;resizable=0;points=[];autosize=1;strokeColor=none;fillColor=none;" vertex="1" parent="Pgp0EbT_cRB48tDjf4iF-54">
          <mxGeometry y="176" width="185" height="30" as="geometry" />
        </mxCell>
        <mxCell id="C3KwuTIJUDm_DYnTq-bH-9" style="edgeStyle=orthogonalEdgeStyle;rounded=0;orthogonalLoop=1;jettySize=auto;html=1;entryX=0.005;entryY=0.533;entryDx=0;entryDy=0;entryPerimeter=0;exitX=0;exitY=0.5;exitDx=0;exitDy=0;" edge="1" parent="WIyWlLk6GJQsqaUBKTNV-1" source="pUIKYV5cTmb6bCNj5t-Q-21" target="pUIKYV5cTmb6bCNj5t-Q-36">
          <mxGeometry relative="1" as="geometry">
            <Array as="points">
              <mxPoint x="-40" y="69" />
              <mxPoint x="-40" y="1032" />
            </Array>
            <mxPoint x="20" y="50" as="sourcePoint" />
          </mxGeometry>
        </mxCell>
        <mxCell id="IE2CaWGolGk02aoR1vxO-13" value="UTENTI-RUOLI" style="swimlane;fontStyle=0;align=center;verticalAlign=top;childLayout=stackLayout;horizontal=1;startSize=26;horizontalStack=0;resizeParent=1;resizeLast=0;collapsible=1;marginBottom=0;rounded=0;shadow=0;strokeWidth=1;fillColor=#d5e8d4;strokeColor=#82b366;gradientColor=#97d077;" vertex="1" parent="WIyWlLk6GJQsqaUBKTNV-1">
          <mxGeometry x="-460" y="270" width="280" height="140" as="geometry">
            <mxRectangle x="130" y="380" width="160" height="26" as="alternateBounds" />
          </mxGeometry>
        </mxCell>
        <mxCell id="0GZrhmt0IgbavrPeBn35-0" value="PK : ID_UTENTE_RUOLO" style="text;align=left;verticalAlign=top;spacingLeft=4;spacingRight=4;overflow=hidden;rotatable=0;points=[[0,0.5],[1,0.5]];portConstraint=eastwest;fillColor=#d5e8d4;strokeColor=#82b366;" vertex="1" parent="IE2CaWGolGk02aoR1vxO-13">
          <mxGeometry y="26" width="280" height="26" as="geometry" />
        </mxCell>
        <mxCell id="IE2CaWGolGk02aoR1vxO-14" value="FK : ID_UTENTE" style="text;align=left;verticalAlign=top;spacingLeft=4;spacingRight=4;overflow=hidden;rotatable=0;points=[[0,0.5],[1,0.5]];portConstraint=eastwest;fillColor=#dae8fc;strokeColor=#6c8ebf;" vertex="1" parent="IE2CaWGolGk02aoR1vxO-13">
          <mxGeometry y="52" width="280" height="26" as="geometry" />
        </mxCell>
        <mxCell id="IE2CaWGolGk02aoR1vxO-15" value="FK: ID_RUOLO" style="text;align=left;verticalAlign=top;spacingLeft=4;spacingRight=4;overflow=hidden;rotatable=0;points=[[0,0.5],[1,0.5]];portConstraint=eastwest;rounded=0;shadow=0;html=0;fillColor=#fff2cc;strokeColor=#d6b656;" vertex="1" parent="IE2CaWGolGk02aoR1vxO-13">
          <mxGeometry y="78" width="280" height="26" as="geometry" />
        </mxCell>
        <mxCell id="IE2CaWGolGk02aoR1vxO-16" value="" style="line;html=1;strokeWidth=1;align=left;verticalAlign=middle;spacingTop=-1;spacingLeft=3;spacingRight=3;rotatable=0;labelPosition=right;points=[];portConstraint=eastwest;" vertex="1" parent="IE2CaWGolGk02aoR1vxO-13">
          <mxGeometry y="104" width="280" height="8" as="geometry" />
        </mxCell>
        <mxCell id="IE2CaWGolGk02aoR1vxO-18" value="Ruoli" style="swimlane;fontStyle=0;align=center;verticalAlign=top;childLayout=stackLayout;horizontal=1;startSize=26;horizontalStack=0;resizeParent=1;resizeLast=0;collapsible=1;marginBottom=0;rounded=0;shadow=0;strokeWidth=1;fillColor=#fff2cc;strokeColor=#d6b656;gradientColor=#ffd966;" vertex="1" parent="WIyWlLk6GJQsqaUBKTNV-1">
          <mxGeometry x="-460" y="90" width="280" height="138" as="geometry">
            <mxRectangle x="130" y="380" width="160" height="26" as="alternateBounds" />
          </mxGeometry>
        </mxCell>
        <mxCell id="IE2CaWGolGk02aoR1vxO-19" value="PK : ID_RUOLO" style="text;align=left;verticalAlign=top;spacingLeft=4;spacingRight=4;overflow=hidden;rotatable=0;points=[[0,0.5],[1,0.5]];portConstraint=eastwest;fillColor=#fff2cc;strokeColor=#d6b656;" vertex="1" parent="IE2CaWGolGk02aoR1vxO-18">
          <mxGeometry y="26" width="280" height="26" as="geometry" />
        </mxCell>
        <mxCell id="IE2CaWGolGk02aoR1vxO-20" value="" style="line;html=1;strokeWidth=1;align=left;verticalAlign=middle;spacingTop=-1;spacingLeft=3;spacingRight=3;rotatable=0;labelPosition=right;points=[];portConstraint=eastwest;" vertex="1" parent="IE2CaWGolGk02aoR1vxO-18">
          <mxGeometry y="52" width="280" height="8" as="geometry" />
        </mxCell>
        <mxCell id="IE2CaWGolGk02aoR1vxO-21" value="Ruolo" style="text;align=left;verticalAlign=top;spacingLeft=4;spacingRight=4;overflow=hidden;rotatable=0;points=[[0,0.5],[1,0.5]];portConstraint=eastwest;" vertex="1" parent="IE2CaWGolGk02aoR1vxO-18">
          <mxGeometry y="60" width="280" height="26" as="geometry" />
        </mxCell>
        <mxCell id="IE2CaWGolGk02aoR1vxO-22" value="Descrizione" style="text;align=left;verticalAlign=top;spacingLeft=4;spacingRight=4;overflow=hidden;rotatable=0;points=[[0,0.5],[1,0.5]];portConstraint=eastwest;" vertex="1" parent="IE2CaWGolGk02aoR1vxO-18">
          <mxGeometry y="86" width="280" height="26" as="geometry" />
        </mxCell>
        <mxCell id="0GZrhmt0IgbavrPeBn35-2" value="Utente" style="swimlane;fontStyle=2;align=center;verticalAlign=top;childLayout=stackLayout;horizontal=1;startSize=26;horizontalStack=0;resizeParent=1;resizeLast=0;collapsible=1;marginBottom=0;rounded=0;shadow=0;strokeWidth=1;fillColor=#dae8fc;strokeColor=#6c8ebf;gradientColor=#7ea6e0;" vertex="1" parent="WIyWlLk6GJQsqaUBKTNV-1">
          <mxGeometry x="-700" y="90" width="160" height="130" as="geometry">
            <mxRectangle x="230" y="140" width="160" height="26" as="alternateBounds" />
          </mxGeometry>
        </mxCell>
        <mxCell id="0GZrhmt0IgbavrPeBn35-3" value="PK : ID_UTENTE" style="text;align=left;verticalAlign=top;spacingLeft=4;spacingRight=4;overflow=hidden;rotatable=0;points=[[0,0.5],[1,0.5]];portConstraint=eastwest;fillColor=#dae8fc;strokeColor=#6c8ebf;" vertex="1" parent="0GZrhmt0IgbavrPeBn35-2">
          <mxGeometry y="26" width="160" height="26" as="geometry" />
        </mxCell>
        <mxCell id="0GZrhmt0IgbavrPeBn35-4" value="" style="line;html=1;strokeWidth=1;align=left;verticalAlign=middle;spacingTop=-1;spacingLeft=3;spacingRight=3;rotatable=0;labelPosition=right;points=[];portConstraint=eastwest;" vertex="1" parent="0GZrhmt0IgbavrPeBn35-2">
          <mxGeometry y="52" width="160" height="8" as="geometry" />
        </mxCell>
        <mxCell id="0GZrhmt0IgbavrPeBn35-5" value="Mail" style="text;html=1;align=center;verticalAlign=middle;resizable=0;points=[];autosize=1;strokeColor=none;fillColor=none;" vertex="1" parent="0GZrhmt0IgbavrPeBn35-2">
          <mxGeometry y="60" width="160" height="30" as="geometry" />
        </mxCell>
        <mxCell id="0GZrhmt0IgbavrPeBn35-6" value="Password" style="text;html=1;align=center;verticalAlign=middle;resizable=0;points=[];autosize=1;strokeColor=none;fillColor=none;" vertex="1" parent="0GZrhmt0IgbavrPeBn35-2">
          <mxGeometry y="90" width="160" height="30" as="geometry" />
        </mxCell>
        <mxCell id="0GZrhmt0IgbavrPeBn35-12" value="Profilo" style="swimlane;fontStyle=2;align=center;verticalAlign=top;childLayout=stackLayout;horizontal=1;startSize=26;horizontalStack=0;resizeParent=1;resizeLast=0;collapsible=1;marginBottom=0;rounded=0;shadow=0;strokeWidth=1;fillColor=#D4E1F5;strokeColor=#6c8ebf;gradientColor=#66B2FF;" vertex="1" parent="WIyWlLk6GJQsqaUBKTNV-1">
          <mxGeometry x="-660" y="730" width="160" height="240" as="geometry">
            <mxRectangle x="230" y="140" width="160" height="26" as="alternateBounds" />
          </mxGeometry>
        </mxCell>
        <mxCell id="0GZrhmt0IgbavrPeBn35-13" value="PK : ID_PROFILO" style="text;align=left;verticalAlign=top;spacingLeft=4;spacingRight=4;overflow=hidden;rotatable=0;points=[[0,0.5],[1,0.5]];portConstraint=eastwest;fillColor=#66B2FF;strokeColor=#6c8ebf;" vertex="1" parent="0GZrhmt0IgbavrPeBn35-12">
          <mxGeometry y="26" width="160" height="26" as="geometry" />
        </mxCell>
        <mxCell id="0GZrhmt0IgbavrPeBn35-22" value="FK : ID_UTENTE_RUOLO" style="text;align=left;verticalAlign=top;spacingLeft=4;spacingRight=4;overflow=hidden;rotatable=0;points=[[0,0.5],[1,0.5]];portConstraint=eastwest;fillColor=#d5e8d4;strokeColor=#82b366;" vertex="1" parent="0GZrhmt0IgbavrPeBn35-12">
          <mxGeometry y="52" width="160" height="26" as="geometry" />
        </mxCell>
        <mxCell id="0GZrhmt0IgbavrPeBn35-14" value="" style="line;html=1;strokeWidth=1;align=left;verticalAlign=middle;spacingTop=-1;spacingLeft=3;spacingRight=3;rotatable=0;labelPosition=right;points=[];portConstraint=eastwest;" vertex="1" parent="0GZrhmt0IgbavrPeBn35-12">
          <mxGeometry y="78" width="160" height="8" as="geometry" />
        </mxCell>
        <mxCell id="0GZrhmt0IgbavrPeBn35-17" value="Nome" style="text;html=1;align=center;verticalAlign=middle;resizable=0;points=[];autosize=1;strokeColor=none;fillColor=none;" vertex="1" parent="0GZrhmt0IgbavrPeBn35-12">
          <mxGeometry y="86" width="160" height="30" as="geometry" />
        </mxCell>
        <mxCell id="0GZrhmt0IgbavrPeBn35-18" value="Cognome" style="text;html=1;align=center;verticalAlign=middle;resizable=0;points=[];autosize=1;strokeColor=none;fillColor=none;" vertex="1" parent="0GZrhmt0IgbavrPeBn35-12">
          <mxGeometry y="116" width="160" height="30" as="geometry" />
        </mxCell>
        <mxCell id="0GZrhmt0IgbavrPeBn35-19" value="Indirizzo" style="text;html=1;align=center;verticalAlign=middle;resizable=0;points=[];autosize=1;strokeColor=none;fillColor=none;" vertex="1" parent="0GZrhmt0IgbavrPeBn35-12">
          <mxGeometry y="146" width="160" height="30" as="geometry" />
        </mxCell>
        <mxCell id="0GZrhmt0IgbavrPeBn35-20" value="Telefono" style="text;html=1;align=center;verticalAlign=middle;resizable=0;points=[];autosize=1;strokeColor=none;fillColor=none;" vertex="1" parent="0GZrhmt0IgbavrPeBn35-12">
          <mxGeometry y="176" width="160" height="30" as="geometry" />
        </mxCell>
        <mxCell id="0GZrhmt0IgbavrPeBn35-21" value="Data Nascita" style="text;html=1;align=center;verticalAlign=middle;resizable=0;points=[];autosize=1;strokeColor=none;fillColor=none;" vertex="1" parent="0GZrhmt0IgbavrPeBn35-12">
          <mxGeometry y="206" width="160" height="30" as="geometry" />
        </mxCell>
        <mxCell id="WrUZInJRl3D3PERXDvme-18" value="RISTORANTI-PRODOTTI" style="swimlane;fontStyle=0;align=center;verticalAlign=top;childLayout=stackLayout;horizontal=1;startSize=26;horizontalStack=0;resizeParent=1;resizeLast=0;collapsible=1;marginBottom=0;rounded=0;shadow=0;strokeWidth=1;fillColor=#dae8fc;strokeColor=#6c8ebf;gradientColor=#7ea6e0;" vertex="1" parent="WIyWlLk6GJQsqaUBKTNV-1">
          <mxGeometry x="250" y="330" width="280" height="140" as="geometry">
            <mxRectangle x="130" y="380" width="160" height="26" as="alternateBounds" />
          </mxGeometry>
        </mxCell>
        <mxCell id="WrUZInJRl3D3PERXDvme-19" value="PK : ID_RISTORANTI-PRODOTTI" style="text;align=left;verticalAlign=top;spacingLeft=4;spacingRight=4;overflow=hidden;rotatable=0;points=[[0,0.5],[1,0.5]];portConstraint=eastwest;fillColor=#dae8fc;strokeColor=#6c8ebf;" vertex="1" parent="WrUZInJRl3D3PERXDvme-18">
          <mxGeometry y="26" width="280" height="26" as="geometry" />
        </mxCell>
        <mxCell id="WrUZInJRl3D3PERXDvme-20" value="PK : ID_PRODOTTO" style="text;align=left;verticalAlign=top;spacingLeft=4;spacingRight=4;overflow=hidden;rotatable=0;points=[[0,0.5],[1,0.5]];portConstraint=eastwest;fillColor=#f5f5f5;fontColor=#333333;strokeColor=#666666;" vertex="1" parent="WrUZInJRl3D3PERXDvme-18">
          <mxGeometry y="52" width="280" height="26" as="geometry" />
        </mxCell>
        <mxCell id="WrUZInJRl3D3PERXDvme-24" value="PK : ID_FOOD_PROVIDER" style="text;align=left;verticalAlign=top;spacingLeft=4;spacingRight=4;overflow=hidden;rotatable=0;points=[[0,0.5],[1,0.5]];portConstraint=eastwest;fillColor=#ffe6cc;strokeColor=#d79b00;" vertex="1" parent="WrUZInJRl3D3PERXDvme-18">
          <mxGeometry y="78" width="280" height="26" as="geometry" />
        </mxCell>
        <mxCell id="WrUZInJRl3D3PERXDvme-22" value="" style="line;html=1;strokeWidth=1;align=left;verticalAlign=middle;spacingTop=-1;spacingLeft=3;spacingRight=3;rotatable=0;labelPosition=right;points=[];portConstraint=eastwest;" vertex="1" parent="WrUZInJRl3D3PERXDvme-18">
          <mxGeometry y="104" width="280" height="8" as="geometry" />
        </mxCell>
        <mxCell id="WrUZInJRl3D3PERXDvme-33" style="edgeStyle=orthogonalEdgeStyle;rounded=0;orthogonalLoop=1;jettySize=auto;html=1;entryX=0;entryY=0.5;entryDx=0;entryDy=0;" edge="1" parent="WIyWlLk6GJQsqaUBKTNV-1" source="pUIKYV5cTmb6bCNj5t-Q-21" target="WrUZInJRl3D3PERXDvme-24">
          <mxGeometry relative="1" as="geometry">
            <Array as="points">
              <mxPoint x="210" y="69" />
              <mxPoint x="210" y="421" />
            </Array>
          </mxGeometry>
        </mxCell>
        <mxCell id="7sslTZbJ7KFvJnqQfUNf-0" value="Carte di Credito" style="swimlane;fontStyle=2;align=center;verticalAlign=top;childLayout=stackLayout;horizontal=1;startSize=26;horizontalStack=0;resizeParent=1;resizeLast=0;collapsible=1;marginBottom=0;rounded=0;shadow=0;strokeWidth=1;fillColor=#f5f5f5;strokeColor=#666666;gradientColor=#b3b3b3;" vertex="1" parent="WIyWlLk6GJQsqaUBKTNV-1">
          <mxGeometry x="-640" y="1010" width="160" height="176" as="geometry">
            <mxRectangle x="230" y="140" width="160" height="26" as="alternateBounds" />
          </mxGeometry>
        </mxCell>
        <mxCell id="7sslTZbJ7KFvJnqQfUNf-1" value="PK : ID_CARTA" style="text;align=left;verticalAlign=top;spacingLeft=4;spacingRight=4;overflow=hidden;rotatable=0;points=[[0,0.5],[1,0.5]];portConstraint=eastwest;fillColor=#f5f5f5;strokeColor=#666666;fontColor=#333333;" vertex="1" parent="7sslTZbJ7KFvJnqQfUNf-0">
          <mxGeometry y="26" width="160" height="26" as="geometry" />
        </mxCell>
        <mxCell id="7sslTZbJ7KFvJnqQfUNf-2" value="FK : ID_PROFILO" style="text;align=left;verticalAlign=top;spacingLeft=4;spacingRight=4;overflow=hidden;rotatable=0;points=[[0,0.5],[1,0.5]];portConstraint=eastwest;fillColor=#66B2FF;strokeColor=#6c8ebf;" vertex="1" parent="7sslTZbJ7KFvJnqQfUNf-0">
          <mxGeometry y="52" width="160" height="26" as="geometry" />
        </mxCell>
        <mxCell id="7sslTZbJ7KFvJnqQfUNf-3" value="" style="line;html=1;strokeWidth=1;align=left;verticalAlign=middle;spacingTop=-1;spacingLeft=3;spacingRight=3;rotatable=0;labelPosition=right;points=[];portConstraint=eastwest;" vertex="1" parent="7sslTZbJ7KFvJnqQfUNf-0">
          <mxGeometry y="78" width="160" height="8" as="geometry" />
        </mxCell>
        <mxCell id="7sslTZbJ7KFvJnqQfUNf-4" value="Numero Carta" style="text;html=1;align=center;verticalAlign=middle;resizable=0;points=[];autosize=1;strokeColor=none;fillColor=none;" vertex="1" parent="7sslTZbJ7KFvJnqQfUNf-0">
          <mxGeometry y="86" width="160" height="30" as="geometry" />
        </mxCell>
        <mxCell id="7sslTZbJ7KFvJnqQfUNf-5" value="Scadenza" style="text;html=1;align=center;verticalAlign=middle;resizable=0;points=[];autosize=1;strokeColor=none;fillColor=none;" vertex="1" parent="7sslTZbJ7KFvJnqQfUNf-0">
          <mxGeometry y="116" width="160" height="30" as="geometry" />
        </mxCell>
        <mxCell id="7sslTZbJ7KFvJnqQfUNf-7" value="Titolare" style="text;html=1;align=center;verticalAlign=middle;resizable=0;points=[];autosize=1;strokeColor=none;fillColor=none;" vertex="1" parent="7sslTZbJ7KFvJnqQfUNf-0">
          <mxGeometry y="146" width="160" height="30" as="geometry" />
        </mxCell>
        <mxCell id="7sslTZbJ7KFvJnqQfUNf-8" style="edgeStyle=orthogonalEdgeStyle;rounded=0;orthogonalLoop=1;jettySize=auto;html=1;entryX=0;entryY=0.692;entryDx=0;entryDy=0;entryPerimeter=0;" edge="1" parent="WIyWlLk6GJQsqaUBKTNV-1" source="0GZrhmt0IgbavrPeBn35-13" target="7sslTZbJ7KFvJnqQfUNf-2">
          <mxGeometry relative="1" as="geometry">
            <Array as="points">
              <mxPoint x="-690" y="769" />
              <mxPoint x="-690" y="1080" />
            </Array>
          </mxGeometry>
        </mxCell>
        <mxCell id="7sslTZbJ7KFvJnqQfUNf-18" style="edgeStyle=orthogonalEdgeStyle;rounded=0;orthogonalLoop=1;jettySize=auto;html=1;entryX=0;entryY=0.5;entryDx=0;entryDy=0;" edge="1" parent="WIyWlLk6GJQsqaUBKTNV-1" source="C3KwuTIJUDm_DYnTq-bH-6" target="C3KwuTIJUDm_DYnTq-bH-18">
          <mxGeometry relative="1" as="geometry">
            <Array as="points">
              <mxPoint x="-20" y="971" />
              <mxPoint x="-20" y="745" />
            </Array>
          </mxGeometry>
        </mxCell>
        <mxCell id="7sslTZbJ7KFvJnqQfUNf-19" style="edgeStyle=orthogonalEdgeStyle;rounded=0;orthogonalLoop=1;jettySize=auto;html=1;entryX=0;entryY=0.5;entryDx=0;entryDy=0;" edge="1" parent="WIyWlLk6GJQsqaUBKTNV-1" source="0GZrhmt0IgbavrPeBn35-3" target="IE2CaWGolGk02aoR1vxO-14">
          <mxGeometry relative="1" as="geometry" />
        </mxCell>
        <mxCell id="WrUZInJRl3D3PERXDvme-76" style="edgeStyle=orthogonalEdgeStyle;rounded=0;orthogonalLoop=1;jettySize=auto;html=1;entryX=-0.025;entryY=0.508;entryDx=0;entryDy=0;entryPerimeter=0;" edge="1" parent="WIyWlLk6GJQsqaUBKTNV-1" source="0GZrhmt0IgbavrPeBn35-0" target="0GZrhmt0IgbavrPeBn35-22">
          <mxGeometry relative="1" as="geometry">
            <Array as="points">
              <mxPoint x="-730" y="309" />
              <mxPoint x="-730" y="795" />
            </Array>
          </mxGeometry>
        </mxCell>
        <mxCell id="WrUZInJRl3D3PERXDvme-77" style="edgeStyle=orthogonalEdgeStyle;rounded=0;orthogonalLoop=1;jettySize=auto;html=1;entryX=0.002;entryY=0.63;entryDx=0;entryDy=0;entryPerimeter=0;" edge="1" parent="WIyWlLk6GJQsqaUBKTNV-1" source="0GZrhmt0IgbavrPeBn35-13" target="pUIKYV5cTmb6bCNj5t-Q-35">
          <mxGeometry relative="1" as="geometry" />
        </mxCell>
        <mxCell id="WrUZInJRl3D3PERXDvme-78" style="edgeStyle=orthogonalEdgeStyle;rounded=0;orthogonalLoop=1;jettySize=auto;html=1;entryX=0.007;entryY=0.387;entryDx=0;entryDy=0;entryPerimeter=0;" edge="1" parent="WIyWlLk6GJQsqaUBKTNV-1" source="0GZrhmt0IgbavrPeBn35-13" target="pUIKYV5cTmb6bCNj5t-Q-37">
          <mxGeometry relative="1" as="geometry">
            <Array as="points">
              <mxPoint x="-240" y="769" />
              <mxPoint x="-240" y="1058" />
            </Array>
          </mxGeometry>
        </mxCell>
        <mxCell id="WrUZInJRl3D3PERXDvme-80" style="edgeStyle=orthogonalEdgeStyle;rounded=0;orthogonalLoop=1;jettySize=auto;html=1;entryX=0;entryY=0.5;entryDx=0;entryDy=0;" edge="1" parent="WIyWlLk6GJQsqaUBKTNV-1" source="C3KwuTIJUDm_DYnTq-bH-6" target="Pgp0EbT_cRB48tDjf4iF-48">
          <mxGeometry relative="1" as="geometry">
            <Array as="points">
              <mxPoint x="380" y="971" />
              <mxPoint x="380" y="1011" />
            </Array>
          </mxGeometry>
        </mxCell>
        <mxCell id="EHlbFagzX4l2wP9dxiTS-50" value="Turni" style="swimlane;fontStyle=2;align=center;verticalAlign=top;childLayout=stackLayout;horizontal=1;startSize=26;horizontalStack=0;resizeParent=1;resizeLast=0;collapsible=1;marginBottom=0;rounded=0;shadow=0;strokeWidth=1;fillColor=#f8cecc;strokeColor=#b85450;gradientColor=#ea6b66;" vertex="1" parent="WIyWlLk6GJQsqaUBKTNV-1">
          <mxGeometry x="-455" y="480" width="270" height="180" as="geometry">
            <mxRectangle x="230" y="140" width="160" height="26" as="alternateBounds" />
          </mxGeometry>
        </mxCell>
        <mxCell id="EHlbFagzX4l2wP9dxiTS-51" value="PK : ID_TURNO" style="text;align=left;verticalAlign=top;spacingLeft=4;spacingRight=4;overflow=hidden;rotatable=0;points=[[0,0.5],[1,0.5]];portConstraint=eastwest;fillColor=#f8cecc;strokeColor=#b85450;" vertex="1" parent="EHlbFagzX4l2wP9dxiTS-50">
          <mxGeometry y="26" width="270" height="26" as="geometry" />
        </mxCell>
        <mxCell id="EHlbFagzX4l2wP9dxiTS-52" value="FK : ID_PROFILO : FATTORINO" style="text;align=left;verticalAlign=top;spacingLeft=4;spacingRight=4;overflow=hidden;rotatable=0;points=[[0,0.5],[1,0.5]];portConstraint=eastwest;fillColor=#7EA6E0;strokeColor=#10739e;" vertex="1" parent="EHlbFagzX4l2wP9dxiTS-50">
          <mxGeometry y="52" width="270" height="26" as="geometry" />
        </mxCell>
        <mxCell id="EHlbFagzX4l2wP9dxiTS-53" value="" style="line;html=1;strokeWidth=1;align=left;verticalAlign=middle;spacingTop=-1;spacingLeft=3;spacingRight=3;rotatable=0;labelPosition=right;points=[];portConstraint=eastwest;" vertex="1" parent="EHlbFagzX4l2wP9dxiTS-50">
          <mxGeometry y="78" width="270" height="8" as="geometry" />
        </mxCell>
        <mxCell id="EHlbFagzX4l2wP9dxiTS-54" value="Tipo (INIZIO = 1|| FINE = 0)" style="text;html=1;align=center;verticalAlign=middle;resizable=0;points=[];autosize=1;strokeColor=none;fillColor=none;" vertex="1" parent="EHlbFagzX4l2wP9dxiTS-50">
          <mxGeometry y="86" width="270" height="30" as="geometry" />
        </mxCell>
        <mxCell id="EHlbFagzX4l2wP9dxiTS-55" value="Orario" style="text;html=1;align=center;verticalAlign=middle;resizable=0;points=[];autosize=1;strokeColor=none;fillColor=none;" vertex="1" parent="EHlbFagzX4l2wP9dxiTS-50">
          <mxGeometry y="116" width="270" height="30" as="geometry" />
        </mxCell>
        <mxCell id="EHlbFagzX4l2wP9dxiTS-57" value="Utente" style="swimlane;fontStyle=2;align=center;verticalAlign=top;childLayout=stackLayout;horizontal=1;startSize=26;horizontalStack=0;resizeParent=1;resizeLast=0;collapsible=1;marginBottom=0;rounded=0;shadow=0;strokeWidth=1;fillColor=#dae8fc;strokeColor=#6c8ebf;gradientColor=#7ea6e0;" vertex="1" parent="WIyWlLk6GJQsqaUBKTNV-1">
          <mxGeometry x="-700" y="90" width="160" height="130" as="geometry">
            <mxRectangle x="230" y="140" width="160" height="26" as="alternateBounds" />
          </mxGeometry>
        </mxCell>
        <mxCell id="EHlbFagzX4l2wP9dxiTS-58" value="PK : ID_UTENTE" style="text;align=left;verticalAlign=top;spacingLeft=4;spacingRight=4;overflow=hidden;rotatable=0;points=[[0,0.5],[1,0.5]];portConstraint=eastwest;fillColor=#dae8fc;strokeColor=#6c8ebf;" vertex="1" parent="EHlbFagzX4l2wP9dxiTS-57">
          <mxGeometry y="26" width="160" height="26" as="geometry" />
        </mxCell>
        <mxCell id="EHlbFagzX4l2wP9dxiTS-59" value="" style="line;html=1;strokeWidth=1;align=left;verticalAlign=middle;spacingTop=-1;spacingLeft=3;spacingRight=3;rotatable=0;labelPosition=right;points=[];portConstraint=eastwest;" vertex="1" parent="EHlbFagzX4l2wP9dxiTS-57">
          <mxGeometry y="52" width="160" height="8" as="geometry" />
        </mxCell>
        <mxCell id="EHlbFagzX4l2wP9dxiTS-60" value="Mail" style="text;html=1;align=center;verticalAlign=middle;resizable=0;points=[];autosize=1;strokeColor=none;fillColor=none;" vertex="1" parent="EHlbFagzX4l2wP9dxiTS-57">
          <mxGeometry y="60" width="160" height="30" as="geometry" />
        </mxCell>
        <mxCell id="EHlbFagzX4l2wP9dxiTS-61" value="Password" style="text;html=1;align=center;verticalAlign=middle;resizable=0;points=[];autosize=1;strokeColor=none;fillColor=none;" vertex="1" parent="EHlbFagzX4l2wP9dxiTS-57">
          <mxGeometry y="90" width="160" height="30" as="geometry" />
        </mxCell>
        <mxCell id="EHlbFagzX4l2wP9dxiTS-73" value="Prodotto" style="swimlane;fontStyle=2;align=center;verticalAlign=top;childLayout=stackLayout;horizontal=1;startSize=26;horizontalStack=0;resizeParent=1;resizeLast=0;collapsible=1;marginBottom=0;rounded=0;shadow=0;strokeWidth=1;fillColor=#f5f5f5;strokeColor=#666666;gradientColor=#b3b3b3;" vertex="1" parent="WIyWlLk6GJQsqaUBKTNV-1">
          <mxGeometry x="442.5" y="600" width="245" height="240" as="geometry">
            <mxRectangle x="230" y="140" width="160" height="26" as="alternateBounds" />
          </mxGeometry>
        </mxCell>
        <mxCell id="EHlbFagzX4l2wP9dxiTS-74" value="PK : ID_PRODOTTO" style="text;align=left;verticalAlign=top;spacingLeft=4;spacingRight=4;overflow=hidden;rotatable=0;points=[[0,0.5],[1,0.5]];portConstraint=eastwest;fillColor=#f5f5f5;strokeColor=#666666;fontColor=#333333;" vertex="1" parent="EHlbFagzX4l2wP9dxiTS-73">
          <mxGeometry y="26" width="245" height="26" as="geometry" />
        </mxCell>
        <mxCell id="7HxDWiLNe3AIB8kSRY5j-16" value="PK : ID_CATEGORIA_PRODOTTO" style="text;align=left;verticalAlign=top;spacingLeft=4;spacingRight=4;overflow=hidden;rotatable=0;points=[[0,0.5],[1,0.5]];portConstraint=eastwest;fillColor=#fff2cc;strokeColor=#d6b656;" vertex="1" parent="EHlbFagzX4l2wP9dxiTS-73">
          <mxGeometry y="52" width="245" height="26" as="geometry" />
        </mxCell>
        <mxCell id="EHlbFagzX4l2wP9dxiTS-75" value="" style="line;html=1;strokeWidth=1;align=left;verticalAlign=middle;spacingTop=-1;spacingLeft=3;spacingRight=3;rotatable=0;labelPosition=right;points=[];portConstraint=eastwest;" vertex="1" parent="EHlbFagzX4l2wP9dxiTS-73">
          <mxGeometry y="78" width="245" height="8" as="geometry" />
        </mxCell>
        <mxCell id="EHlbFagzX4l2wP9dxiTS-76" value="Nome" style="text;html=1;align=center;verticalAlign=middle;resizable=0;points=[];autosize=1;strokeColor=none;fillColor=none;" vertex="1" parent="EHlbFagzX4l2wP9dxiTS-73">
          <mxGeometry y="86" width="245" height="30" as="geometry" />
        </mxCell>
        <mxCell id="EHlbFagzX4l2wP9dxiTS-77" value="Descrizione" style="text;html=1;align=center;verticalAlign=middle;resizable=0;points=[];autosize=1;strokeColor=none;fillColor=none;" vertex="1" parent="EHlbFagzX4l2wP9dxiTS-73">
          <mxGeometry y="116" width="245" height="30" as="geometry" />
        </mxCell>
        <mxCell id="EHlbFagzX4l2wP9dxiTS-78" value="Prezzo" style="text;html=1;align=center;verticalAlign=middle;resizable=0;points=[];autosize=1;strokeColor=none;fillColor=none;" vertex="1" parent="EHlbFagzX4l2wP9dxiTS-73">
          <mxGeometry y="146" width="245" height="30" as="geometry" />
        </mxCell>
        <mxCell id="EHlbFagzX4l2wP9dxiTS-79" value="Categoria" style="text;html=1;align=center;verticalAlign=middle;resizable=0;points=[];autosize=1;strokeColor=none;fillColor=none;" vertex="1" parent="EHlbFagzX4l2wP9dxiTS-73">
          <mxGeometry y="176" width="245" height="30" as="geometry" />
        </mxCell>
        <mxCell id="EHlbFagzX4l2wP9dxiTS-80" value="url Foto" style="text;html=1;align=center;verticalAlign=middle;resizable=0;points=[];autosize=1;strokeColor=none;fillColor=none;" vertex="1" parent="EHlbFagzX4l2wP9dxiTS-73">
          <mxGeometry y="206" width="245" height="30" as="geometry" />
        </mxCell>
        <mxCell id="EHlbFagzX4l2wP9dxiTS-88" style="edgeStyle=orthogonalEdgeStyle;rounded=0;orthogonalLoop=1;jettySize=auto;html=1;entryX=0;entryY=0.5;entryDx=0;entryDy=0;" edge="1" parent="WIyWlLk6GJQsqaUBKTNV-1">
          <mxGeometry relative="1" as="geometry">
            <Array as="points">
              <mxPoint x="210" y="69" />
              <mxPoint x="210" y="421" />
            </Array>
            <mxPoint x="250" y="69" as="sourcePoint" />
            <mxPoint x="250" y="421" as="targetPoint" />
          </mxGeometry>
        </mxCell>
        <mxCell id="7HxDWiLNe3AIB8kSRY5j-6" value="Categorie_Prodotto" style="swimlane;fontStyle=0;align=center;verticalAlign=top;childLayout=stackLayout;horizontal=1;startSize=26;horizontalStack=0;resizeParent=1;resizeLast=0;collapsible=1;marginBottom=0;rounded=0;shadow=0;strokeWidth=1;fillColor=#FFE599;strokeColor=#b85450;gradientColor=#FFD966;" vertex="1" parent="WIyWlLk6GJQsqaUBKTNV-1">
          <mxGeometry x="827" y="700" width="280" height="100" as="geometry">
            <mxRectangle x="130" y="380" width="160" height="26" as="alternateBounds" />
          </mxGeometry>
        </mxCell>
        <mxCell id="7HxDWiLNe3AIB8kSRY5j-7" value="PK : ID_CATEGORIA_PRODOTTO" style="text;align=left;verticalAlign=top;spacingLeft=4;spacingRight=4;overflow=hidden;rotatable=0;points=[[0,0.5],[1,0.5]];portConstraint=eastwest;fillColor=#fff2cc;strokeColor=#d6b656;" vertex="1" parent="7HxDWiLNe3AIB8kSRY5j-6">
          <mxGeometry y="26" width="280" height="26" as="geometry" />
        </mxCell>
        <mxCell id="7HxDWiLNe3AIB8kSRY5j-8" value="" style="line;html=1;strokeWidth=1;align=left;verticalAlign=middle;spacingTop=-1;spacingLeft=3;spacingRight=3;rotatable=0;labelPosition=right;points=[];portConstraint=eastwest;" vertex="1" parent="7HxDWiLNe3AIB8kSRY5j-6">
          <mxGeometry y="52" width="280" height="8" as="geometry" />
        </mxCell>
        <mxCell id="7HxDWiLNe3AIB8kSRY5j-9" value="Nome" style="text;align=left;verticalAlign=top;spacingLeft=4;spacingRight=4;overflow=hidden;rotatable=0;points=[[0,0.5],[1,0.5]];portConstraint=eastwest;" vertex="1" parent="7HxDWiLNe3AIB8kSRY5j-6">
          <mxGeometry y="60" width="280" height="26" as="geometry" />
        </mxCell>
        <mxCell id="7HxDWiLNe3AIB8kSRY5j-17" style="edgeStyle=orthogonalEdgeStyle;rounded=0;orthogonalLoop=1;jettySize=auto;html=1;entryX=1;entryY=0.5;entryDx=0;entryDy=0;" edge="1" parent="WIyWlLk6GJQsqaUBKTNV-1" source="7HxDWiLNe3AIB8kSRY5j-7" target="7HxDWiLNe3AIB8kSRY5j-16">
          <mxGeometry relative="1" as="geometry" />
        </mxCell>
        <mxCell id="7HxDWiLNe3AIB8kSRY5j-19" style="edgeStyle=orthogonalEdgeStyle;rounded=0;orthogonalLoop=1;jettySize=auto;html=1;entryX=0.996;entryY=0.261;entryDx=0;entryDy=0;entryPerimeter=0;" edge="1" parent="WIyWlLk6GJQsqaUBKTNV-1" source="EHlbFagzX4l2wP9dxiTS-74">
          <mxGeometry relative="1" as="geometry">
            <mxPoint x="528.8800000000001" y="388.78600000000006" as="targetPoint" />
            <Array as="points">
              <mxPoint x="740" y="639" />
              <mxPoint x="740" y="389" />
            </Array>
          </mxGeometry>
        </mxCell>
        <mxCell id="7HxDWiLNe3AIB8kSRY5j-21" value="Piatti_ingredienti" style="swimlane;fontStyle=0;align=center;verticalAlign=top;childLayout=stackLayout;horizontal=1;startSize=26;horizontalStack=0;resizeParent=1;resizeLast=0;collapsible=1;marginBottom=0;rounded=0;shadow=0;strokeWidth=1;fillColor=#d80073;fontColor=#ffffff;strokeColor=#A50040;" vertex="1" parent="WIyWlLk6GJQsqaUBKTNV-1">
          <mxGeometry x="827" y="530" width="280" height="138" as="geometry">
            <mxRectangle x="130" y="380" width="160" height="26" as="alternateBounds" />
          </mxGeometry>
        </mxCell>
        <mxCell id="7HxDWiLNe3AIB8kSRY5j-22" value="PK : PRODOTTO" style="text;align=left;verticalAlign=top;spacingLeft=4;spacingRight=4;overflow=hidden;rotatable=0;points=[[0,0.5],[1,0.5]];portConstraint=eastwest;fillColor=#f5f5f5;strokeColor=#666666;fontColor=#333333;" vertex="1" parent="7HxDWiLNe3AIB8kSRY5j-21">
          <mxGeometry y="26" width="280" height="26" as="geometry" />
        </mxCell>
        <mxCell id="7HxDWiLNe3AIB8kSRY5j-23" value="FK: ID_INGREDIENTE" style="text;align=left;verticalAlign=top;spacingLeft=4;spacingRight=4;overflow=hidden;rotatable=0;points=[[0,0.5],[1,0.5]];portConstraint=eastwest;rounded=0;shadow=0;html=0;fillColor=#ffe6cc;strokeColor=#d79b00;" vertex="1" parent="7HxDWiLNe3AIB8kSRY5j-21">
          <mxGeometry y="52" width="280" height="26" as="geometry" />
        </mxCell>
        <mxCell id="7HxDWiLNe3AIB8kSRY5j-24" value="" style="line;html=1;strokeWidth=1;align=left;verticalAlign=middle;spacingTop=-1;spacingLeft=3;spacingRight=3;rotatable=0;labelPosition=right;points=[];portConstraint=eastwest;" vertex="1" parent="7HxDWiLNe3AIB8kSRY5j-21">
          <mxGeometry y="78" width="280" height="8" as="geometry" />
        </mxCell>
        <mxCell id="7HxDWiLNe3AIB8kSRY5j-25" value="Quantità" style="text;align=left;verticalAlign=top;spacingLeft=4;spacingRight=4;overflow=hidden;rotatable=0;points=[[0,0.5],[1,0.5]];portConstraint=eastwest;" vertex="1" parent="7HxDWiLNe3AIB8kSRY5j-21">
          <mxGeometry y="86" width="280" height="26" as="geometry" />
        </mxCell>
        <mxCell id="7HxDWiLNe3AIB8kSRY5j-26" value="Piatti_ingredienti_aggiunti" style="swimlane;fontStyle=0;align=center;verticalAlign=top;childLayout=stackLayout;horizontal=1;startSize=26;horizontalStack=0;resizeParent=1;resizeLast=0;collapsible=1;marginBottom=0;rounded=0;shadow=0;strokeWidth=1;fillColor=#60a917;strokeColor=#2D7600;fontColor=#ffffff;" vertex="1" parent="WIyWlLk6GJQsqaUBKTNV-1">
          <mxGeometry x="827" y="920" width="280" height="138" as="geometry">
            <mxRectangle x="130" y="380" width="160" height="26" as="alternateBounds" />
          </mxGeometry>
        </mxCell>
        <mxCell id="7HxDWiLNe3AIB8kSRY5j-27" value="PK : ID_ORDINE_PRODOTTO" style="text;align=left;verticalAlign=top;spacingLeft=4;spacingRight=4;overflow=hidden;rotatable=0;points=[[0,0.5],[1,0.5]];portConstraint=eastwest;fillColor=#dae8fc;strokeColor=#6c8ebf;" vertex="1" parent="7HxDWiLNe3AIB8kSRY5j-26">
          <mxGeometry y="26" width="280" height="26" as="geometry" />
        </mxCell>
        <mxCell id="7HxDWiLNe3AIB8kSRY5j-28" value="FK: ID_INGREDIENTE" style="text;align=left;verticalAlign=top;spacingLeft=4;spacingRight=4;overflow=hidden;rotatable=0;points=[[0,0.5],[1,0.5]];portConstraint=eastwest;rounded=0;shadow=0;html=0;fillColor=#ffe6cc;strokeColor=#d79b00;" vertex="1" parent="7HxDWiLNe3AIB8kSRY5j-26">
          <mxGeometry y="52" width="280" height="26" as="geometry" />
        </mxCell>
        <mxCell id="7HxDWiLNe3AIB8kSRY5j-29" value="" style="line;html=1;strokeWidth=1;align=left;verticalAlign=middle;spacingTop=-1;spacingLeft=3;spacingRight=3;rotatable=0;labelPosition=right;points=[];portConstraint=eastwest;" vertex="1" parent="7HxDWiLNe3AIB8kSRY5j-26">
          <mxGeometry y="78" width="280" height="8" as="geometry" />
        </mxCell>
        <mxCell id="7HxDWiLNe3AIB8kSRY5j-30" value="Quantità" style="text;align=left;verticalAlign=top;spacingLeft=4;spacingRight=4;overflow=hidden;rotatable=0;points=[[0,0.5],[1,0.5]];portConstraint=eastwest;" vertex="1" parent="7HxDWiLNe3AIB8kSRY5j-26">
          <mxGeometry y="86" width="280" height="26" as="geometry" />
        </mxCell>
        <mxCell id="7HxDWiLNe3AIB8kSRY5j-31" value="Piatti_ingredienti_rimossi" style="swimlane;fontStyle=0;align=center;verticalAlign=top;childLayout=stackLayout;horizontal=1;startSize=26;horizontalStack=0;resizeParent=1;resizeLast=0;collapsible=1;marginBottom=0;rounded=0;shadow=0;strokeWidth=1;fillColor=#e51400;fontColor=#ffffff;strokeColor=#B20000;" vertex="1" parent="WIyWlLk6GJQsqaUBKTNV-1">
          <mxGeometry x="827" y="1070" width="280" height="138" as="geometry">
            <mxRectangle x="130" y="380" width="160" height="26" as="alternateBounds" />
          </mxGeometry>
        </mxCell>
        <mxCell id="7HxDWiLNe3AIB8kSRY5j-32" value="PK : ID_ORDINE_PRODOTTO" style="text;align=left;verticalAlign=top;spacingLeft=4;spacingRight=4;overflow=hidden;rotatable=0;points=[[0,0.5],[1,0.5]];portConstraint=eastwest;fillColor=#dae8fc;strokeColor=#6c8ebf;" vertex="1" parent="7HxDWiLNe3AIB8kSRY5j-31">
          <mxGeometry y="26" width="280" height="26" as="geometry" />
        </mxCell>
        <mxCell id="7HxDWiLNe3AIB8kSRY5j-33" value="FK: ID_INGREDIENTE" style="text;align=left;verticalAlign=top;spacingLeft=4;spacingRight=4;overflow=hidden;rotatable=0;points=[[0,0.5],[1,0.5]];portConstraint=eastwest;rounded=0;shadow=0;html=0;fillColor=#ffe6cc;strokeColor=#d79b00;" vertex="1" parent="7HxDWiLNe3AIB8kSRY5j-31">
          <mxGeometry y="52" width="280" height="26" as="geometry" />
        </mxCell>
        <mxCell id="7HxDWiLNe3AIB8kSRY5j-34" value="" style="line;html=1;strokeWidth=1;align=left;verticalAlign=middle;spacingTop=-1;spacingLeft=3;spacingRight=3;rotatable=0;labelPosition=right;points=[];portConstraint=eastwest;" vertex="1" parent="7HxDWiLNe3AIB8kSRY5j-31">
          <mxGeometry y="78" width="280" height="8" as="geometry" />
        </mxCell>
        <mxCell id="7HxDWiLNe3AIB8kSRY5j-37" value="Ingredienti" style="swimlane;fontStyle=2;align=center;verticalAlign=top;childLayout=stackLayout;horizontal=1;startSize=26;horizontalStack=0;resizeParent=1;resizeLast=0;collapsible=1;marginBottom=0;rounded=0;shadow=0;strokeWidth=1;fillColor=#ffcd28;strokeColor=#d79b00;gradientColor=#ffa500;" vertex="1" parent="WIyWlLk6GJQsqaUBKTNV-1">
          <mxGeometry x="947" y="240" width="160" height="130" as="geometry">
            <mxRectangle x="230" y="140" width="160" height="26" as="alternateBounds" />
          </mxGeometry>
        </mxCell>
        <mxCell id="7HxDWiLNe3AIB8kSRY5j-38" value="PK : ID_INGREDIENTE" style="text;align=left;verticalAlign=top;spacingLeft=4;spacingRight=4;overflow=hidden;rotatable=0;points=[[0,0.5],[1,0.5]];portConstraint=eastwest;fillColor=#ffe6cc;strokeColor=#d79b00;" vertex="1" parent="7HxDWiLNe3AIB8kSRY5j-37">
          <mxGeometry y="26" width="160" height="26" as="geometry" />
        </mxCell>
        <mxCell id="7HxDWiLNe3AIB8kSRY5j-39" value="" style="line;html=1;strokeWidth=1;align=left;verticalAlign=middle;spacingTop=-1;spacingLeft=3;spacingRight=3;rotatable=0;labelPosition=right;points=[];portConstraint=eastwest;" vertex="1" parent="7HxDWiLNe3AIB8kSRY5j-37">
          <mxGeometry y="52" width="160" height="8" as="geometry" />
        </mxCell>
        <mxCell id="7HxDWiLNe3AIB8kSRY5j-40" value="Nome" style="text;html=1;align=center;verticalAlign=middle;resizable=0;points=[];autosize=1;strokeColor=none;fillColor=none;" vertex="1" parent="7HxDWiLNe3AIB8kSRY5j-37">
          <mxGeometry y="60" width="160" height="30" as="geometry" />
        </mxCell>
        <mxCell id="7HxDWiLNe3AIB8kSRY5j-42" value="Prezzo" style="text;html=1;align=center;verticalAlign=middle;resizable=0;points=[];autosize=1;strokeColor=none;fillColor=none;" vertex="1" parent="7HxDWiLNe3AIB8kSRY5j-37">
          <mxGeometry y="90" width="160" height="30" as="geometry" />
        </mxCell>
        <mxCell id="7HxDWiLNe3AIB8kSRY5j-43" style="edgeStyle=orthogonalEdgeStyle;rounded=0;orthogonalLoop=1;jettySize=auto;html=1;entryX=1;entryY=0.5;entryDx=0;entryDy=0;" edge="1" parent="WIyWlLk6GJQsqaUBKTNV-1" source="7HxDWiLNe3AIB8kSRY5j-38" target="7HxDWiLNe3AIB8kSRY5j-21">
          <mxGeometry relative="1" as="geometry">
            <Array as="points">
              <mxPoint x="1150" y="279" />
              <mxPoint x="1150" y="599" />
            </Array>
          </mxGeometry>
        </mxCell>
        <mxCell id="7HxDWiLNe3AIB8kSRY5j-44" style="edgeStyle=orthogonalEdgeStyle;rounded=0;orthogonalLoop=1;jettySize=auto;html=1;entryX=0;entryY=0.5;entryDx=0;entryDy=0;" edge="1" parent="WIyWlLk6GJQsqaUBKTNV-1" source="EHlbFagzX4l2wP9dxiTS-74" target="7HxDWiLNe3AIB8kSRY5j-22">
          <mxGeometry relative="1" as="geometry">
            <Array as="points">
              <mxPoint x="780" y="639" />
              <mxPoint x="780" y="569" />
            </Array>
          </mxGeometry>
        </mxCell>
        <mxCell id="7HxDWiLNe3AIB8kSRY5j-48" style="edgeStyle=orthogonalEdgeStyle;rounded=0;orthogonalLoop=1;jettySize=auto;html=1;entryX=0;entryY=0.5;entryDx=0;entryDy=0;" edge="1" parent="WIyWlLk6GJQsqaUBKTNV-1" source="EHlbFagzX4l2wP9dxiTS-74" target="WrUZInJRl3D3PERXDvme-10">
          <mxGeometry relative="1" as="geometry">
            <Array as="points">
              <mxPoint x="390" y="639" />
              <mxPoint x="390" y="985" />
            </Array>
          </mxGeometry>
        </mxCell>
        <mxCell id="7HxDWiLNe3AIB8kSRY5j-49" style="edgeStyle=orthogonalEdgeStyle;rounded=0;orthogonalLoop=1;jettySize=auto;html=1;" edge="1" parent="WIyWlLk6GJQsqaUBKTNV-1" source="C3KwuTIJUDm_DYnTq-bH-27" target="7HxDWiLNe3AIB8kSRY5j-27">
          <mxGeometry relative="1" as="geometry" />
        </mxCell>
        <mxCell id="7HxDWiLNe3AIB8kSRY5j-50" style="edgeStyle=orthogonalEdgeStyle;rounded=0;orthogonalLoop=1;jettySize=auto;html=1;" edge="1" parent="WIyWlLk6GJQsqaUBKTNV-1" source="C3KwuTIJUDm_DYnTq-bH-27" target="7HxDWiLNe3AIB8kSRY5j-32">
          <mxGeometry relative="1" as="geometry" />
        </mxCell>
        <mxCell id="7HxDWiLNe3AIB8kSRY5j-51" style="edgeStyle=orthogonalEdgeStyle;rounded=0;orthogonalLoop=1;jettySize=auto;html=1;entryX=1;entryY=0.5;entryDx=0;entryDy=0;" edge="1" parent="WIyWlLk6GJQsqaUBKTNV-1" source="7HxDWiLNe3AIB8kSRY5j-38" target="7HxDWiLNe3AIB8kSRY5j-26">
          <mxGeometry relative="1" as="geometry">
            <Array as="points">
              <mxPoint x="1150" y="279" />
              <mxPoint x="1150" y="989" />
            </Array>
          </mxGeometry>
        </mxCell>
        <mxCell id="7HxDWiLNe3AIB8kSRY5j-52" style="edgeStyle=orthogonalEdgeStyle;rounded=0;orthogonalLoop=1;jettySize=auto;html=1;entryX=1;entryY=0.5;entryDx=0;entryDy=0;" edge="1" parent="WIyWlLk6GJQsqaUBKTNV-1" source="7HxDWiLNe3AIB8kSRY5j-38" target="7HxDWiLNe3AIB8kSRY5j-31">
          <mxGeometry relative="1" as="geometry">
            <Array as="points">
              <mxPoint x="1150" y="279" />
              <mxPoint x="1150" y="1139" />
            </Array>
          </mxGeometry>
        </mxCell>
        <mxCell id="7HxDWiLNe3AIB8kSRY5j-58" style="edgeStyle=orthogonalEdgeStyle;rounded=0;orthogonalLoop=1;jettySize=auto;html=1;entryX=0;entryY=0.5;entryDx=0;entryDy=0;" edge="1" parent="WIyWlLk6GJQsqaUBKTNV-1" source="IE2CaWGolGk02aoR1vxO-19" target="IE2CaWGolGk02aoR1vxO-15">
          <mxGeometry relative="1" as="geometry" />
        </mxCell>
        <mxCell id="SgOX4F9TNJigtled1r72-0" value="Orari Food Provider" style="swimlane;fontStyle=2;align=center;verticalAlign=top;childLayout=stackLayout;horizontal=1;startSize=26;horizontalStack=0;resizeParent=1;resizeLast=0;collapsible=1;marginBottom=0;rounded=0;shadow=0;strokeWidth=1;fillColor=#f8cecc;strokeColor=#b85450;gradientColor=#ea6b66;" vertex="1" parent="WIyWlLk6GJQsqaUBKTNV-1">
          <mxGeometry x="590" y="30" width="215" height="200" as="geometry">
            <mxRectangle x="230" y="140" width="160" height="26" as="alternateBounds" />
          </mxGeometry>
        </mxCell>
        <mxCell id="SgOX4F9TNJigtled1r72-1" value="PK : ID_ORARIO" style="text;align=left;verticalAlign=top;spacingLeft=4;spacingRight=4;overflow=hidden;rotatable=0;points=[[0,0.5],[1,0.5]];portConstraint=eastwest;fillColor=#f8cecc;strokeColor=#b85450;" vertex="1" parent="SgOX4F9TNJigtled1r72-0">
          <mxGeometry y="26" width="215" height="26" as="geometry" />
        </mxCell>
        <mxCell id="SgOX4F9TNJigtled1r72-2" value="FK: ID_FOOD_PROVIDER" style="text;align=left;verticalAlign=top;spacingLeft=4;spacingRight=4;overflow=hidden;rotatable=0;points=[[0,0.5],[1,0.5]];portConstraint=eastwest;fillColor=#fff2cc;strokeColor=#d6b656;" vertex="1" parent="SgOX4F9TNJigtled1r72-0">
          <mxGeometry y="52" width="215" height="26" as="geometry" />
        </mxCell>
        <mxCell id="SgOX4F9TNJigtled1r72-3" value="" style="line;html=1;strokeWidth=1;align=left;verticalAlign=middle;spacingTop=-1;spacingLeft=3;spacingRight=3;rotatable=0;labelPosition=right;points=[];portConstraint=eastwest;" vertex="1" parent="SgOX4F9TNJigtled1r72-0">
          <mxGeometry y="78" width="215" height="8" as="geometry" />
        </mxCell>
        <mxCell id="SgOX4F9TNJigtled1r72-4" value="Giorno Settimana" style="text;html=1;align=center;verticalAlign=middle;resizable=0;points=[];autosize=1;strokeColor=none;fillColor=none;" vertex="1" parent="SgOX4F9TNJigtled1r72-0">
          <mxGeometry y="86" width="215" height="30" as="geometry" />
        </mxCell>
        <mxCell id="SgOX4F9TNJigtled1r72-5" value="Orario Inizio" style="text;html=1;align=center;verticalAlign=middle;resizable=0;points=[];autosize=1;strokeColor=none;fillColor=none;" vertex="1" parent="SgOX4F9TNJigtled1r72-0">
          <mxGeometry y="116" width="215" height="30" as="geometry" />
        </mxCell>
        <mxCell id="SgOX4F9TNJigtled1r72-6" value="Orario Fine" style="text;html=1;align=center;verticalAlign=middle;resizable=0;points=[];autosize=1;strokeColor=none;fillColor=none;" vertex="1" parent="SgOX4F9TNJigtled1r72-0">
          <mxGeometry y="146" width="215" height="30" as="geometry" />
        </mxCell>
        <mxCell id="SgOX4F9TNJigtled1r72-8" value="Categorie_food_provider" style="swimlane;fontStyle=0;align=center;verticalAlign=top;childLayout=stackLayout;horizontal=1;startSize=26;horizontalStack=0;resizeParent=1;resizeLast=0;collapsible=1;marginBottom=0;rounded=0;shadow=0;strokeWidth=1;fillColor=#fff2cc;strokeColor=#d6b656;gradientColor=#ffd966;" vertex="1" parent="WIyWlLk6GJQsqaUBKTNV-1">
          <mxGeometry x="250" y="500" width="280" height="90" as="geometry">
            <mxRectangle x="130" y="380" width="160" height="26" as="alternateBounds" />
          </mxGeometry>
        </mxCell>
        <mxCell id="SgOX4F9TNJigtled1r72-9" value="PK : ID_CATEGORIA_FOOD_DELIVERY" style="text;align=left;verticalAlign=top;spacingLeft=4;spacingRight=4;overflow=hidden;rotatable=0;points=[[0,0.5],[1,0.5]];portConstraint=eastwest;fillColor=#fff2cc;strokeColor=#d6b656;" vertex="1" parent="SgOX4F9TNJigtled1r72-8">
          <mxGeometry y="26" width="280" height="26" as="geometry" />
        </mxCell>
        <mxCell id="SgOX4F9TNJigtled1r72-10" value="" style="line;html=1;strokeWidth=1;align=left;verticalAlign=middle;spacingTop=-1;spacingLeft=3;spacingRight=3;rotatable=0;labelPosition=right;points=[];portConstraint=eastwest;" vertex="1" parent="SgOX4F9TNJigtled1r72-8">
          <mxGeometry y="52" width="280" height="8" as="geometry" />
        </mxCell>
        <mxCell id="SgOX4F9TNJigtled1r72-11" value="Nome" style="text;align=left;verticalAlign=top;spacingLeft=4;spacingRight=4;overflow=hidden;rotatable=0;points=[[0,0.5],[1,0.5]];portConstraint=eastwest;" vertex="1" parent="SgOX4F9TNJigtled1r72-8">
          <mxGeometry y="60" width="280" height="26" as="geometry" />
        </mxCell>
        <mxCell id="SgOX4F9TNJigtled1r72-12" style="edgeStyle=orthogonalEdgeStyle;rounded=0;orthogonalLoop=1;jettySize=auto;html=1;entryX=0;entryY=0.5;entryDx=0;entryDy=0;" edge="1" parent="WIyWlLk6GJQsqaUBKTNV-1" source="SgOX4F9TNJigtled1r72-9" target="C3KwuTIJUDm_DYnTq-bH-4">
          <mxGeometry relative="1" as="geometry" />
        </mxCell>
        <mxCell id="SgOX4F9TNJigtled1r72-13" style="edgeStyle=orthogonalEdgeStyle;rounded=0;orthogonalLoop=1;jettySize=auto;html=1;" edge="1" parent="WIyWlLk6GJQsqaUBKTNV-1" source="pUIKYV5cTmb6bCNj5t-Q-21" target="SgOX4F9TNJigtled1r72-1">
          <mxGeometry relative="1" as="geometry" />
        </mxCell>
        <mxCell id="SgOX4F9TNJigtled1r72-14" style="edgeStyle=orthogonalEdgeStyle;rounded=0;orthogonalLoop=1;jettySize=auto;html=1;entryX=0;entryY=0.5;entryDx=0;entryDy=0;" edge="1" parent="WIyWlLk6GJQsqaUBKTNV-1" source="0GZrhmt0IgbavrPeBn35-13" target="C3KwuTIJUDm_DYnTq-bH-25">
          <mxGeometry relative="1" as="geometry" />
        </mxCell>
        <mxCell id="SgOX4F9TNJigtled1r72-15" style="edgeStyle=orthogonalEdgeStyle;rounded=0;orthogonalLoop=1;jettySize=auto;html=1;entryX=0;entryY=0.5;entryDx=0;entryDy=0;" edge="1" parent="WIyWlLk6GJQsqaUBKTNV-1" source="0GZrhmt0IgbavrPeBn35-13" target="EHlbFagzX4l2wP9dxiTS-52">
          <mxGeometry relative="1" as="geometry" />
        </mxCell>
      </root>
    </mxGraphModel>
  </diagram>
</mxfile>
